M48
;DRILL file {KiCad 6.0.0-rc1-unknown-ba8647f~66~ubuntu18.04.1} date Sun Sep 16 18:21:39 2018
;FORMAT={-:-/ absolute / metric / decimal}
FMAT,2
METRIC,TZ
T1C0.305
T2C0.650
T3C0.700
T4C0.800
T5C0.900
T6C1.000
T7C1.001
T8C1.016
T9C1.400
T10C1.500
T11C0.700
T12C1.702
T13C2.500
T14C3.048
T15C3.988
T16C6.000
%
G90
G05
M71
T1
X86.055Y-98.057
X86.906Y-97.168
X97.028Y-93.853
X100.076Y-134.239
X100.076Y-155.956
X104.707Y-135.081
X105.457Y-97.081
X106.707Y-102.831
X106.707Y-109.831
X107.569Y-143.129
X108.707Y-94.481
X108.957Y-109.831
X110.457Y-103.831
X111.207Y-78.831
X111.559Y-94.733
X115.707Y-97.331
X115.951Y-123.317
X116.457Y-71.581
X116.84Y-104.267
X117.207Y-156.331
X117.457Y-73.331
X118.457Y-96.831
X118.869Y-93.34
X120.485Y-74.348
X120.957Y-69.331
X121.105Y-70.597
X121.457Y-81.581
X121.666Y-114.046
X122.428Y-103.505
X124.46Y-113.03
X126.657Y-104.267
X126.707Y-80.081
X126.957Y-70.331
X127.207Y-75.581
X127.207Y-77.831
X127.557Y-80.131
X127.889Y-130.175
X128.957Y-69.831
X129.247Y-71.726
X129.389Y-73.098
X129.771Y-69.93
X129.879Y-71.301
X129.957Y-69.191
X130.692Y-72.882
X131.557Y-86.031
X132.99Y-86.095
X133.707Y-75.831
X133.751Y-86.05
X133.957Y-76.581
X134.513Y-86.068
X135.457Y-72.331
X135.657Y-86.081
X135.707Y-84.081
X135.957Y-73.081
X136.024Y-123.317
X136.207Y-78.081
X136.707Y-73.581
X136.957Y-90.331
X138.007Y-85.548
X138.457Y-74.581
X138.957Y-69.831
X139.657Y-84.881
X139.709Y-83.329
X140.207Y-80.581
X140.457Y-71.573
X140.457Y-82.081
X142.457Y-77.331
X145.957Y-75.331
X146.357Y-161.925
X148.151Y-86.779
X148.207Y-80.581
X148.957Y-78.081
X150.207Y-116.331
X150.429Y-138.831
X150.707Y-85.581
X152.807Y-143.129
X153.707Y-83.081
X154.469Y-83.081
X154.957Y-72.331
X154.957Y-83.831
X157.457Y-92.331
X158.207Y-83.581
X159.207Y-137.581
X159.707Y-144.331
X163.449Y-105.029
X165.608Y-105.029
X166.957Y-75.331
X167.834Y-73.958
X167.957Y-81.581
X169.207Y-126.081
X169.707Y-94.081
X170.457Y-75.831
X170.707Y-72.831
X170.707Y-73.831
X170.707Y-83.542
X170.942Y-104.14
X171.207Y-78.581
X171.707Y-91.331
X172.457Y-77.331
X172.932Y-79.191
X173.139Y-77.672
X173.634Y-162.814
X175.457Y-118.331
X175.641Y-154.432
X175.707Y-91.831
X176.407Y-95.881
X178.207Y-90.831
X178.457Y-79.331
X178.707Y-86.331
X179.957Y-79.081
X180.151Y-76.025
X180.957Y-74.081
X181.356Y-169.672
X181.457Y-72.581
X183.457Y-118.081
X183.457Y-122.331
X185.957Y-74.831
X186.207Y-79.581
X186.707Y-81.831
X186.907Y-74.531
X187.707Y-81.831
X187.707Y-86.331
X188.087Y-122.301
X188.207Y-85.081
X188.707Y-81.331
X188.707Y-84.081
X189.469Y-81.331
X189.657Y-74.581
X189.957Y-78.831
X191.457Y-79.581
X194.207Y-79.831
X195.834Y-137.287
X195.957Y-96.331
X195.961Y-123.825
X196.469Y-105.537
X196.707Y-85.581
X196.723Y-157.099
X197.457Y-141.081
X199.209Y-98.079
X202.707Y-92.331
X216.707Y-96.331
X223.901Y-100.076
X227.957Y-80.581
X229.157Y-74.581
X229.957Y-85.852
X230.207Y-73.331
X230.207Y-81.331
X231.457Y-86.581
X231.957Y-81.081
X232.957Y-81.331
X233.457Y-73.581
X233.457Y-74.831
X233.457Y-95.581
X234.957Y-81.331
X236.093Y-155.829
X236.457Y-81.581
X236.457Y-84.081
X242.457Y-80.331
X243.84Y-85.09
X254.Y-75.057
X254.Y-77.855
X254.474Y-73.499
X254.889Y-75.565
X255.143Y-76.581
X255.905Y-77.089
X256.207Y-70.581
X257.207Y-71.081
X258.318Y-80.01
X260.35Y-124.714
X261.112Y-73.787
X262.636Y-74.549
X263.017Y-105.664
X263.525Y-75.184
X264.668Y-86.614
X271.018Y-144.018
X285.242Y-75.819
X288.417Y-163.322
X304.927Y-76.581
X326.009Y-77.322
X340.614Y-77.724
X361.95Y-78.359
X364.236Y-94.361
X364.871Y-159.131
X365.379Y-154.305
X365.633Y-78.613
X369.443Y-100.203
T4
X139.294Y-159.588
X141.834Y-159.588
X279.787Y-159.588
X282.327Y-159.588
X353.606Y-140.538
X356.146Y-140.538
X301.219Y-159.588
X303.759Y-159.588
X194.062Y-159.588
X196.602Y-159.588
X291.694Y-121.488
X294.234Y-121.488
X241.687Y-159.588
X244.227Y-159.588
X134.531Y-159.588
X137.071Y-159.588
X105.957Y-83.388
X108.497Y-83.388
X270.262Y-159.588
X272.802Y-159.588
X89.287Y-140.538
X91.827Y-140.538
X334.556Y-83.388
X337.096Y-83.388
X91.669Y-102.438
X94.209Y-102.438
X110.719Y-140.538
X113.259Y-140.538
X372.656Y-121.488
X375.196Y-121.488
X282.168Y-140.538
X284.708Y-140.538
X296.456Y-83.388
X298.996Y-83.388
X301.219Y-140.538
X303.759Y-140.538
X91.669Y-159.588
X94.209Y-159.588
X205.968Y-140.538
X208.508Y-140.538
X136.912Y-159.588
X139.452Y-159.588
X215.493Y-121.488
X218.033Y-121.488
X125.006Y-83.388
X127.546Y-83.388
X220.256Y-83.388
X222.796Y-83.388
X327.412Y-159.588
X329.952Y-159.588
X253.594Y-121.488
X256.134Y-121.488
X258.356Y-83.388
X260.896Y-83.388
X205.968Y-159.588
X208.508Y-159.588
X315.506Y-159.588
X318.046Y-159.588
X153.581Y-102.438
X156.121Y-102.438
X196.443Y-121.488
X198.983Y-121.488
X341.7Y-121.488
X344.24Y-121.488
X225.019Y-140.538
X227.559Y-140.538
X94.05Y-121.488
X96.59Y-121.488
X303.6Y-159.588
X306.14Y-159.588
X282.168Y-159.588
X284.708Y-159.588
X351.225Y-159.588
X353.765Y-159.588
X267.881Y-159.588
X270.421Y-159.588
X201.206Y-83.388
X203.746Y-83.388
X148.818Y-140.538
X151.358Y-140.538
X113.1Y-159.588
X115.64Y-159.588
X265.5Y-159.588
X268.04Y-159.588
X325.031Y-102.438
X327.571Y-102.438
X296.456Y-159.588
X298.996Y-159.588
X210.731Y-102.438
X213.271Y-102.438
X244.069Y-140.538
X246.609Y-140.538
X186.918Y-140.538
X189.458Y-140.538
X272.644Y-121.488
X275.184Y-121.488
X372.656Y-159.588
X375.196Y-159.588
X196.443Y-159.588
X198.983Y-159.588
X191.681Y-102.438
X194.221Y-102.438
X139.294Y-121.488
X141.834Y-121.488
X239.306Y-83.388
X241.846Y-83.388
X263.118Y-140.538
X265.658Y-140.538
X229.781Y-102.438
X232.321Y-102.438
X348.843Y-102.438
X351.383Y-102.438
X267.881Y-102.438
X270.421Y-102.438
X182.156Y-83.388
X184.696Y-83.388
X89.287Y-159.588
X91.827Y-159.588
X372.656Y-140.538
X375.196Y-140.538
X158.344Y-121.488
X160.884Y-121.488
X153.581Y-159.588
X156.121Y-159.588
X167.869Y-140.538
X170.409Y-140.538
X134.531Y-102.438
X137.071Y-102.438
X163.106Y-83.388
X165.646Y-83.388
X272.644Y-159.588
X275.184Y-159.588
X315.506Y-83.388
X318.046Y-83.388
X189.3Y-159.588
X191.84Y-159.588
X294.075Y-159.588
X296.615Y-159.588
X89.287Y-121.488
X91.827Y-121.488
X160.725Y-159.588
X163.265Y-159.588
X305.981Y-102.438
X308.521Y-102.438
X289.312Y-159.588
X291.852Y-159.588
X277.406Y-159.588
X279.946Y-159.588
X165.487Y-159.588
X168.027Y-159.588
X129.768Y-159.588
X132.308Y-159.588
X234.544Y-121.488
X237.084Y-121.488
X175.012Y-159.588
X177.552Y-159.588
X151.2Y-159.588
X153.74Y-159.588
X236.925Y-159.588
X239.465Y-159.588
X344.081Y-83.388
X346.621Y-83.388
X327.412Y-140.538
X329.952Y-140.538
X110.719Y-159.588
X113.259Y-159.588
X86.906Y-83.388
X89.446Y-83.388
X115.481Y-159.588
X118.021Y-159.588
X120.244Y-121.488
X122.784Y-121.488
X336.937Y-140.538
X339.477Y-140.538
X334.556Y-159.588
X337.096Y-159.588
X310.743Y-159.588
X313.283Y-159.588
X372.656Y-83.388
X375.196Y-83.388
X115.481Y-102.438
X118.021Y-102.438
X353.606Y-83.388
X356.146Y-83.388
X351.225Y-121.488
X353.765Y-121.488
X158.344Y-159.588
X160.884Y-159.588
X277.406Y-83.388
X279.946Y-83.388
X353.606Y-159.588
X356.146Y-159.588
X234.544Y-159.588
X237.084Y-159.588
X98.812Y-140.538
X101.352Y-140.538
X329.793Y-121.488
X332.333Y-121.488
X129.768Y-140.538
X132.308Y-140.538
X286.931Y-102.438
X289.471Y-102.438
X310.743Y-121.488
X313.283Y-121.488
X248.831Y-102.438
X251.371Y-102.438
X163.106Y-159.588
X165.646Y-159.588
X313.125Y-159.588
X315.665Y-159.588
X347.415Y-115.773
X347.415Y-118.313
X372.656Y-102.438
X375.196Y-102.438
X177.393Y-121.488
X179.933Y-121.488
X144.056Y-83.388
X146.596Y-83.388
X172.631Y-102.438
X175.171Y-102.438
T6
X154.957Y-87.331
X154.957Y-89.871
X154.957Y-92.411
X154.957Y-94.951
X192.957Y-85.751
X192.957Y-88.291
X192.957Y-90.831
X192.957Y-93.371
X116.457Y-85.581
X116.457Y-88.121
X116.457Y-90.661
X122.707Y-70.001
X122.707Y-72.541
X122.707Y-75.081
X122.707Y-77.621
T7
X111.Y-69.46
X111.Y-72.
X102.Y-69.46
X102.Y-72.
X119.Y-69.46
X119.Y-72.
X94.Y-69.46
X94.Y-72.
X98.Y-69.46
X98.Y-72.
X115.Y-69.46
X115.Y-72.
T8
X96.814Y-80.525
X99.314Y-80.525
X101.814Y-80.525
X188.214Y-124.333
X188.214Y-126.873
X188.214Y-129.413
X188.214Y-131.953
X188.214Y-134.493
X226.314Y-126.111
X226.314Y-128.651
X226.314Y-131.191
X226.314Y-133.731
X226.314Y-136.271
T9
X284.875Y-167.108
X286.096Y-168.668
T10
X302.437Y-169.748
X302.477Y-169.168
X307.478Y-168.668
X308.788Y-167.208
X188.137Y-169.748
X188.177Y-169.168
X193.178Y-168.668
X194.488Y-167.208
X257.193Y-93.548
X257.233Y-92.968
X262.234Y-92.468
X263.544Y-91.008
X309.58Y-169.748
X309.62Y-169.168
X314.621Y-168.668
X315.931Y-167.208
X88.124Y-131.648
X88.164Y-131.068
X93.165Y-130.568
X94.475Y-129.108
X114.318Y-112.528
X114.358Y-111.948
X119.359Y-111.448
X120.669Y-109.988
X104.793Y-93.548
X104.833Y-92.968
X109.834Y-92.468
X111.144Y-91.008
X309.58Y-131.648
X309.62Y-131.068
X314.621Y-130.568
X315.931Y-129.108
X238.143Y-93.548
X238.183Y-92.968
X243.184Y-92.468
X244.494Y-91.008
X111.937Y-169.748
X111.977Y-169.168
X116.978Y-168.668
X118.188Y-167.108
X157.181Y-169.748
X157.221Y-169.168
X162.222Y-168.668
X163.532Y-167.208
X352.443Y-169.748
X352.483Y-169.168
X357.484Y-168.668
X358.794Y-167.208
X133.368Y-169.748
X133.408Y-169.168
X138.409Y-168.668
X139.719Y-167.208
X290.531Y-131.648
X290.571Y-131.068
X295.572Y-130.568
X296.882Y-129.108
X85.743Y-93.548
X85.783Y-92.968
X90.784Y-92.468
X92.094Y-91.008
X266.718Y-112.598
X266.758Y-112.018
X271.759Y-111.518
X273.069Y-110.058
X347.68Y-112.725
X347.72Y-112.145
X352.721Y-111.645
X354.031Y-110.185
X247.668Y-112.598
X247.708Y-112.018
X252.709Y-111.518
X254.019Y-110.058
X152.418Y-112.598
X152.458Y-112.018
X157.459Y-111.518
X158.769Y-110.058
X314.343Y-169.748
X314.383Y-169.168
X319.484Y-168.768
X320.694Y-167.208
X114.318Y-169.748
X114.358Y-169.168
X119.459Y-168.768
X120.669Y-167.208
X355.035Y-113.125
X356.495Y-114.435
X356.995Y-119.436
X357.575Y-119.476
X276.243Y-93.548
X276.283Y-92.968
X281.284Y-92.468
X282.594Y-91.008
X192.899Y-169.748
X192.939Y-169.168
X197.94Y-168.668
X199.25Y-167.208
X204.805Y-150.698
X204.845Y-150.118
X209.846Y-149.618
X211.156Y-148.158
X295.293Y-93.548
X295.333Y-92.968
X300.334Y-92.468
X301.644Y-91.008
X276.243Y-169.748
X276.283Y-169.168
X281.284Y-168.668
X282.594Y-167.208
X278.624Y-169.748
X278.664Y-169.168
X283.665Y-168.668
X371.493Y-169.748
X371.533Y-169.168
X376.534Y-168.668
X377.844Y-167.208
X180.993Y-93.548
X181.033Y-92.968
X186.034Y-92.468
X187.344Y-91.008
X119.081Y-131.648
X119.121Y-131.068
X124.122Y-130.568
X125.432Y-129.108
X147.655Y-150.698
X147.695Y-150.118
X152.696Y-149.618
X154.006Y-148.158
X371.493Y-150.698
X371.533Y-150.118
X376.534Y-149.618
X377.844Y-148.158
X161.943Y-169.748
X161.983Y-169.168
X167.084Y-168.768
X168.294Y-167.208
X333.393Y-93.548
X333.433Y-92.968
X338.434Y-92.468
X339.744Y-91.008
X176.23Y-131.648
X176.27Y-131.068
X181.271Y-130.568
X182.581Y-129.108
X371.493Y-93.548
X371.533Y-92.968
X376.534Y-92.468
X377.844Y-91.008
X200.043Y-93.548
X200.083Y-92.968
X205.084Y-92.468
X206.394Y-91.008
X171.468Y-112.598
X171.508Y-112.018
X176.509Y-111.518
X177.819Y-110.058
X300.056Y-169.748
X300.096Y-169.168
X305.097Y-168.668
X306.407Y-167.208
X123.843Y-93.548
X123.883Y-92.968
X128.884Y-92.468
X130.194Y-91.008
X166.706Y-150.698
X166.746Y-150.118
X171.747Y-149.618
X173.057Y-148.158
X133.368Y-112.598
X133.408Y-112.018
X138.409Y-111.518
X139.719Y-110.058
X281.005Y-150.698
X281.045Y-150.118
X286.046Y-149.618
X287.356Y-148.158
X371.493Y-131.648
X371.533Y-131.068
X376.534Y-130.568
X377.844Y-129.108
X92.887Y-131.648
X92.927Y-131.068
X97.928Y-130.568
X99.238Y-129.108
X90.506Y-169.748
X90.546Y-169.168
X95.547Y-168.668
X96.857Y-167.208
X128.605Y-169.748
X128.645Y-169.168
X133.646Y-168.668
X134.956Y-167.208
X269.099Y-169.748
X269.139Y-169.168
X274.24Y-168.768
X275.45Y-167.208
X195.28Y-131.648
X195.32Y-131.068
X200.321Y-130.568
X201.631Y-129.108
X185.755Y-150.698
X185.795Y-150.118
X190.796Y-149.618
X192.106Y-148.158
X195.28Y-169.748
X195.32Y-169.168
X200.321Y-168.668
X201.631Y-167.208
X214.33Y-131.648
X214.37Y-131.068
X219.371Y-130.568
X220.681Y-129.108
X138.131Y-131.648
X138.171Y-131.068
X143.172Y-130.568
X144.482Y-129.108
X326.249Y-169.748
X326.289Y-169.168
X331.29Y-168.668
X332.6Y-167.208
X300.056Y-150.698
X300.096Y-150.118
X305.097Y-149.618
X306.407Y-148.158
X271.481Y-131.648
X271.521Y-131.068
X276.522Y-130.568
X277.832Y-129.108
X242.906Y-150.698
X242.946Y-150.118
X247.947Y-149.618
X249.257Y-148.158
X352.443Y-150.698
X352.483Y-150.118
X357.484Y-149.618
X358.794Y-148.158
X314.343Y-93.548
X314.383Y-92.968
X319.384Y-92.468
X320.694Y-91.008
X223.856Y-150.698
X223.896Y-150.118
X228.897Y-149.618
X230.207Y-148.158
X138.131Y-169.748
X138.171Y-169.168
X143.272Y-168.768
X144.482Y-167.208
X371.493Y-112.598
X371.533Y-112.018
X376.534Y-111.518
X377.844Y-110.058
X204.805Y-169.748
X204.845Y-169.168
X209.846Y-168.668
X211.156Y-167.208
X350.062Y-169.748
X350.102Y-169.168
X355.103Y-168.668
X356.413Y-167.208
X304.818Y-112.598
X304.858Y-112.018
X309.859Y-111.518
X311.169Y-110.058
X340.537Y-131.648
X340.577Y-131.068
X345.578Y-130.568
X346.888Y-129.108
X264.337Y-169.748
X264.377Y-169.168
X269.378Y-168.668
X270.688Y-167.208
X323.868Y-112.598
X323.908Y-112.018
X328.909Y-111.518
X330.219Y-110.058
X342.918Y-93.548
X342.958Y-92.968
X347.959Y-92.468
X349.269Y-91.008
X88.124Y-169.748
X88.164Y-169.168
X93.165Y-168.668
X94.475Y-167.208
X281.005Y-169.748
X281.045Y-169.168
X287.256Y-167.108
X228.618Y-112.528
X228.658Y-111.948
X233.659Y-111.448
X234.969Y-109.988
X295.293Y-169.748
X295.333Y-169.168
X300.334Y-168.668
X301.644Y-167.208
X90.506Y-112.598
X90.546Y-112.018
X95.547Y-111.518
X96.857Y-110.058
X240.524Y-169.748
X240.564Y-169.168
X245.565Y-168.668
X246.875Y-167.208
X209.568Y-112.598
X209.608Y-112.018
X214.609Y-111.518
X215.919Y-110.058
X352.443Y-93.548
X352.483Y-92.968
X357.484Y-92.468
X358.794Y-91.008
X333.393Y-169.748
X333.433Y-169.168
X338.434Y-168.668
X339.744Y-167.208
X335.774Y-150.698
X335.814Y-150.118
X340.815Y-149.618
X342.125Y-148.158
X266.718Y-169.748
X266.758Y-169.168
X271.759Y-168.668
X272.969Y-167.108
X164.324Y-169.748
X164.364Y-169.168
X169.365Y-168.668
X170.675Y-167.208
X135.749Y-169.748
X135.789Y-169.168
X140.79Y-168.668
X142.Y-167.108
X152.418Y-169.748
X152.458Y-169.168
X157.459Y-168.668
X158.769Y-167.208
X190.518Y-112.598
X190.558Y-112.018
X195.559Y-111.518
X196.869Y-110.058
X161.943Y-93.548
X161.983Y-92.968
X166.984Y-92.468
X168.294Y-91.008
X328.63Y-131.648
X328.67Y-131.068
X333.671Y-130.568
X334.981Y-129.108
X150.037Y-169.748
X150.077Y-169.168
X155.078Y-168.668
X156.388Y-167.208
X235.762Y-169.748
X235.802Y-169.168
X240.803Y-168.668
X242.113Y-167.208
X350.062Y-131.648
X350.102Y-131.068
X355.103Y-130.568
X356.413Y-129.108
X142.893Y-93.548
X142.933Y-92.968
X147.934Y-92.468
X149.244Y-91.008
X159.562Y-169.748
X159.602Y-169.168
X164.603Y-168.668
X165.813Y-167.108
X109.556Y-150.698
X109.596Y-150.118
X114.597Y-149.618
X115.907Y-148.158
X261.955Y-150.698
X261.995Y-150.118
X266.996Y-149.618
X268.306Y-148.158
X97.649Y-150.698
X97.689Y-150.118
X102.69Y-149.618
X104.Y-148.158
X233.381Y-169.748
X233.421Y-169.168
X238.422Y-168.668
X239.732Y-167.208
X326.249Y-150.698
X326.289Y-150.118
X331.29Y-149.618
X332.6Y-148.158
X288.149Y-169.748
X288.189Y-169.168
X293.19Y-168.668
X294.5Y-167.208
X157.181Y-131.648
X157.221Y-131.068
X162.222Y-130.568
X163.532Y-129.108
X219.093Y-93.548
X219.133Y-92.968
X224.134Y-92.468
X225.444Y-91.008
X233.381Y-131.648
X233.421Y-131.068
X238.422Y-130.568
X239.732Y-129.108
X88.124Y-150.698
X88.164Y-150.118
X93.165Y-149.618
X94.475Y-148.158
X173.849Y-169.748
X173.889Y-169.168
X178.89Y-168.668
X180.2Y-167.208
X271.481Y-169.748
X271.521Y-169.168
X276.522Y-168.668
X277.832Y-167.208
X292.912Y-169.748
X292.952Y-169.168
X297.953Y-168.668
X299.263Y-167.208
X285.768Y-112.598
X285.808Y-112.018
X290.809Y-111.518
X292.119Y-110.058
X128.605Y-150.698
X128.645Y-150.118
X133.646Y-149.618
X134.956Y-148.158
X252.431Y-131.648
X252.471Y-131.068
X257.472Y-130.568
X258.782Y-129.108
X109.556Y-169.748
X109.596Y-169.168
X114.597Y-168.668
X115.907Y-167.208
X311.962Y-169.748
X312.002Y-169.168
X317.003Y-168.668
X318.213Y-167.108
T11
X208.75Y-80.06
X208.75Y-81.33
X208.75Y-82.6
X208.75Y-83.87
X208.75Y-85.14
X221.65Y-168.26
X221.65Y-169.53
X221.65Y-170.8
X221.65Y-172.07
X221.65Y-173.34
X213.75Y-168.26
X213.75Y-169.53
X213.75Y-170.8
X213.75Y-172.07
X213.75Y-173.34
X214.75Y-80.06
X214.75Y-81.33
X214.75Y-82.6
X214.75Y-83.87
X214.75Y-85.14
T12
X299.79Y-164.668
X309.95Y-164.668
X185.49Y-164.668
X195.65Y-164.668
X254.546Y-88.468
X264.706Y-88.468
X306.933Y-164.668
X85.477Y-126.568
X111.671Y-107.448
X121.831Y-107.448
X102.146Y-88.468
X112.306Y-88.468
X306.933Y-126.568
X317.093Y-126.568
X235.496Y-88.468
X245.656Y-88.468
X109.29Y-164.668
X119.45Y-164.668
X154.534Y-164.668
X349.796Y-164.668
X359.956Y-164.668
X287.884Y-126.568
X298.044Y-126.568
X83.096Y-88.468
X93.256Y-88.468
X264.071Y-107.518
X274.231Y-107.518
X345.033Y-107.645
X355.193Y-107.645
X245.021Y-107.518
X255.181Y-107.518
X149.771Y-107.518
X159.931Y-107.518
X311.696Y-164.668
X321.856Y-164.668
X121.831Y-164.668
X352.495Y-122.123
X273.596Y-88.468
X283.756Y-88.468
X200.412Y-164.668
X202.158Y-145.618
X212.318Y-145.618
X292.646Y-88.468
X302.806Y-88.468
X273.596Y-164.668
X283.756Y-164.668
X275.977Y-164.668
X286.137Y-164.668
X368.846Y-164.668
X379.006Y-164.668
X178.346Y-88.468
X188.506Y-88.468
X116.434Y-126.568
X126.594Y-126.568
X145.008Y-145.618
X155.168Y-145.618
X368.846Y-145.618
X379.006Y-145.618
X169.456Y-164.668
X330.746Y-88.468
X340.906Y-88.468
X173.583Y-126.568
X183.743Y-126.568
X368.846Y-88.468
X379.006Y-88.468
X197.396Y-88.468
X207.556Y-88.468
X168.821Y-107.518
X178.981Y-107.518
X297.409Y-164.668
X307.569Y-164.668
X121.196Y-88.468
X131.356Y-88.468
X164.059Y-145.618
X174.219Y-145.618
X130.721Y-107.518
X140.881Y-107.518
X278.358Y-145.618
X288.518Y-145.618
X368.846Y-126.568
X379.006Y-126.568
X100.4Y-126.568
X87.859Y-164.668
X98.019Y-164.668
X125.958Y-164.668
X276.612Y-164.668
X192.633Y-126.568
X202.793Y-126.568
X183.108Y-145.618
X193.268Y-145.618
X192.633Y-164.668
X202.793Y-164.668
X211.683Y-126.568
X221.843Y-126.568
X135.484Y-126.568
X145.644Y-126.568
X323.602Y-164.668
X333.762Y-164.668
X297.409Y-145.618
X307.569Y-145.618
X268.834Y-126.568
X278.994Y-126.568
X240.259Y-145.618
X250.419Y-145.618
X349.796Y-145.618
X359.956Y-145.618
X311.696Y-88.468
X321.856Y-88.468
X221.209Y-145.618
X231.369Y-145.618
X145.644Y-164.668
X368.846Y-107.518
X379.006Y-107.518
X202.158Y-164.668
X212.318Y-164.668
X347.415Y-164.668
X357.575Y-164.668
X302.171Y-107.518
X312.331Y-107.518
X337.89Y-126.568
X348.05Y-126.568
X261.69Y-164.668
X271.85Y-164.668
X321.221Y-107.518
X331.381Y-107.518
X340.271Y-88.468
X350.431Y-88.468
X85.477Y-164.668
X95.637Y-164.668
X225.971Y-107.448
X236.131Y-107.448
X292.646Y-164.668
X87.859Y-107.518
X98.019Y-107.518
X237.877Y-164.668
X248.037Y-164.668
X206.921Y-107.518
X217.081Y-107.518
X349.796Y-88.468
X359.956Y-88.468
X330.746Y-164.668
X340.906Y-164.668
X333.127Y-145.618
X343.287Y-145.618
X264.071Y-164.668
X274.231Y-164.668
X171.837Y-164.668
X133.102Y-164.668
X143.262Y-164.668
X149.771Y-164.668
X187.871Y-107.518
X198.031Y-107.518
X159.296Y-88.468
X169.456Y-88.468
X325.983Y-126.568
X336.143Y-126.568
X147.39Y-164.668
X157.55Y-164.668
X233.115Y-164.668
X347.415Y-126.568
X357.575Y-126.568
X140.246Y-88.468
X150.406Y-88.468
X156.915Y-164.668
X106.909Y-145.618
X117.069Y-145.618
X259.308Y-145.618
X269.468Y-145.618
X95.002Y-145.618
X105.162Y-145.618
X230.734Y-164.668
X240.894Y-164.668
X323.602Y-145.618
X333.762Y-145.618
X285.502Y-164.668
X154.534Y-126.568
X164.694Y-126.568
X216.446Y-88.468
X226.606Y-88.468
X230.734Y-126.568
X240.894Y-126.568
X85.477Y-145.618
X95.637Y-145.618
X171.202Y-164.668
X181.362Y-164.668
X290.265Y-164.668
X300.425Y-164.668
X283.121Y-107.518
X293.281Y-107.518
X125.958Y-145.618
X136.118Y-145.618
X249.784Y-126.568
X259.944Y-126.568
X106.909Y-164.668
X309.315Y-164.668
X319.475Y-164.668
T13
X93.714Y-73.025
X104.914Y-73.025
T14
X326.269Y-138.633
X350.145Y-138.633
X88.144Y-138.633
X112.02Y-138.633
X333.413Y-81.483
X357.289Y-81.483
X178.632Y-171.653
X202.508Y-171.653
X231.019Y-171.653
X254.895Y-171.653
X185.775Y-171.653
X209.651Y-171.653
X331.032Y-133.553
X354.908Y-133.553
X183.394Y-171.653
X207.27Y-171.653
X223.876Y-171.653
X247.752Y-171.653
X226.257Y-171.653
X250.133Y-171.653
X164.344Y-171.653
X188.22Y-171.653
X359.48Y-105.105
X359.48Y-128.981
T15
X316.776Y-164.668
X116.751Y-164.668
X352.495Y-117.043
X278.676Y-88.468
X195.332Y-164.668
X207.238Y-145.618
X178.632Y-156.413
X202.508Y-156.413
X297.726Y-88.468
X278.676Y-164.668
X281.057Y-164.668
X231.019Y-156.413
X254.895Y-156.413
X373.926Y-164.668
X183.426Y-88.468
X185.775Y-156.413
X209.651Y-156.413
X121.514Y-126.568
X150.088Y-145.618
X373.926Y-145.618
X164.376Y-164.668
X335.826Y-88.468
X178.663Y-126.568
X373.926Y-88.468
X331.032Y-118.313
X354.908Y-118.313
X202.476Y-88.468
X183.394Y-156.413
X207.27Y-156.413
X173.901Y-107.518
X302.489Y-164.668
X126.276Y-88.468
X169.139Y-145.618
X135.801Y-107.518
X283.438Y-145.618
X373.926Y-126.568
X95.32Y-126.568
X92.939Y-164.668
X131.038Y-164.668
X271.532Y-164.668
X197.713Y-126.568
X188.188Y-145.618
X197.713Y-164.668
X216.763Y-126.568
X140.564Y-126.568
X328.682Y-164.668
X223.876Y-156.413
X247.752Y-156.413
X302.489Y-145.618
X273.914Y-126.568
X245.339Y-145.618
X354.876Y-145.618
X316.776Y-88.468
X226.289Y-145.618
X140.564Y-164.668
X373.926Y-107.518
X207.238Y-164.668
X226.257Y-156.413
X250.133Y-156.413
X352.495Y-164.668
X307.251Y-107.518
X342.97Y-126.568
X266.77Y-164.668
X326.301Y-107.518
X164.344Y-156.413
X188.22Y-156.413
X345.351Y-88.468
X90.557Y-164.668
X283.438Y-164.668
X231.051Y-107.448
X344.24Y-105.105
X344.24Y-128.981
X297.726Y-164.668
X92.939Y-107.518
X242.957Y-164.668
X212.001Y-107.518
X354.876Y-88.468
X335.826Y-164.668
X338.207Y-145.618
X269.151Y-164.668
X166.757Y-164.668
X326.269Y-153.873
X350.145Y-153.873
X138.182Y-164.668
X154.851Y-164.668
X192.951Y-107.518
X164.376Y-88.468
X331.063Y-126.568
X88.144Y-153.873
X112.02Y-153.873
X152.47Y-164.668
X238.195Y-164.668
X352.495Y-126.568
X145.326Y-88.468
X161.995Y-164.668
X111.989Y-145.618
X264.388Y-145.618
X100.082Y-145.618
X235.814Y-164.668
X333.413Y-96.723
X357.289Y-96.723
X328.682Y-145.618
X290.582Y-164.668
X159.614Y-126.568
X221.526Y-88.468
X235.814Y-126.568
X90.557Y-145.618
X176.282Y-164.668
X273.914Y-164.668
X295.345Y-164.668
X288.201Y-107.518
X131.038Y-145.618
X254.864Y-126.568
X111.989Y-164.668
X314.395Y-164.668
X304.87Y-164.668
X190.57Y-164.668
X259.626Y-88.468
X312.013Y-164.668
X90.557Y-126.568
X116.751Y-107.448
X107.226Y-88.468
X312.013Y-126.568
X240.576Y-88.468
X114.37Y-164.668
X159.614Y-164.668
X354.876Y-164.668
X135.801Y-164.668
X292.964Y-126.568
X88.176Y-88.468
X269.151Y-107.518
X350.113Y-107.645
X250.101Y-107.518
X154.851Y-107.518
T16
X363.462Y-117.043
X107.939Y-121.018
T2
X173.275Y-72.4G85X173.275Y-72.8
G05
X178.125Y-72.4G85X178.125Y-72.8
G05
T3
X172.975Y-69.35G85X172.975Y-69.85
G05
X178.425Y-69.35G85X178.425Y-69.85
G05
T5
X226.017Y-69.931G85X226.017Y-70.731
G05
X226.017Y-75.391G85X226.017Y-77.191
G05
X240.517Y-69.931G85X240.517Y-70.731
G05
X240.517Y-75.391G85X240.517Y-77.191
G05
X183.297Y-69.911G85X183.297Y-70.711
G05
X183.297Y-75.371G85X183.297Y-77.171
G05
X197.797Y-69.911G85X197.797Y-70.711
G05
X197.797Y-75.371G85X197.797Y-77.171
G05
T0
M30
